<svg xmlns="http://www.w3.org/2000/svg" viewBox="0 0 220.33 28.35"><title>资源 1</title><g id="图层_2" data-name="图层 2"><g id="图层_1-2" data-name="图层 1"><path d="M184.4,14.55h-2.74l.32-5h9V6.34h-12l-.82,11.49h6.24c2.48,0,4.08,1.41,4.08,3.59S186.83,25,184.28,25c-2.24,0-3.75-1-4.27-2.9l-.09-.36L177,23.38l.07.23c1,2.89,3.74,4.69,7.19,4.69,3.6,0,7.47-2.15,7.47-6.88s-3.81-6.87-7.35-6.87"/><path d="M74.77,14.14a5.08,5.08,0,0,1,5.16-4.83c3,0,4.92,2.14,4.92,5.58V28h3.43V14.47a4.84,4.84,0,0,1,5.25-5.16c3,0,5,2.19,5,5.58V28h3.43V14.89c0-5.43-3-8.81-8-8.81a8.37,8.37,0,0,0-7,3.44,7.08,7.08,0,0,0-6.42-3.44,7.61,7.61,0,0,0-5.79,2.39V6.38H71.33V28h3.44Z"/><path d="M35.5,16.86a11.26,11.26,0,0,0-3-8A9.81,9.81,0,0,0,25.43,6c-6.29,0-10.86,4.69-10.86,11.15S19,28.26,25.35,28.26A10.35,10.35,0,0,0,34.82,23l.17-.29-2.94-1.89-.19.32A7,7,0,0,1,25.35,25,7.25,7.25,0,0,1,18,18H35.5Zm-17.32-2a7.31,7.31,0,0,1,7.17-5.64A6.59,6.59,0,0,1,32,14.87Z"/><polygon points="3.43 9.6 13.27 9.6 13.27 6.38 0 6.38 0 28.01 3.43 28.01 3.43 9.6"/><path d="M115.62,28.26A10.37,10.37,0,0,0,125.1,23l.17-.29-3-1.89-.18.32A7,7,0,0,1,115.62,25,7.27,7.27,0,0,1,108.29,18h17.48V16.86a11.21,11.21,0,0,0-3-8A9.79,9.79,0,0,0,115.71,6c-6.29,0-10.86,4.69-10.86,11.15s4.43,11.11,10.77,11.11m-7.17-13.39a7.33,7.33,0,0,1,7.17-5.64,6.58,6.58,0,0,1,6.66,5.64Z"/><rect x="63.44" width="3.43" height="27.97"/><path d="M48.92,28.35A10.53,10.53,0,0,0,55.6,26v2H59V6.42H55.6v2a10.55,10.55,0,0,0-6.68-2.33A10.83,10.83,0,0,0,41.05,9.3,11.32,11.32,0,0,0,38,17.24a11.23,11.23,0,0,0,3.07,7.91,10.86,10.86,0,0,0,7.87,3.2M41.41,17.24a7.38,7.38,0,0,1,7.35-7.72c4.34,0,7.25,3.1,7.25,7.72s-2.91,7.67-7.25,7.67a7.35,7.35,0,0,1-7.35-7.67"/><path d="M150.37,25a7.58,7.58,0,0,1-7.86-7.8,7.59,7.59,0,0,1,7.86-7.82A7.14,7.14,0,0,1,156,12l3-1.72A10.76,10.76,0,0,0,150.37,6a11,11,0,0,0-11.26,11.17,11,11,0,0,0,11.26,11.17,10.68,10.68,0,0,0,8.73-4.4l-2.95-1.73A7.27,7.27,0,0,1,150.37,25"/><path d="M166.44,24.6l4.84-4.82c1.78-1.78,3.82-4.19,3.82-7.11A6.6,6.6,0,0,0,168.3,6a7.35,7.35,0,0,0-6.86,4.29l-.12.24,2.83,1.67.14-.29a4.22,4.22,0,0,1,4-2.64,3.25,3.25,0,0,1,3.41,3.44c0,1.77-1.45,3.46-2.87,4.88l-7.46,7.61v2.68h14.08V24.6Z"/><path d="M216.09,8.05a2.54,2.54,0,0,1,2.53,2.53V23.83a2.54,2.54,0,0,1-2.53,2.53H202.66a2.53,2.53,0,0,1-2.53-2.53V10.58a2.53,2.53,0,0,1,2.53-2.53h13.43m0-1.71H202.66a4.24,4.24,0,0,0-4.24,4.24V23.83a4.23,4.23,0,0,0,4.24,4.23h13.43a4.23,4.23,0,0,0,4.24-4.23V10.58a4.24,4.24,0,0,0-4.24-4.24m-8.66,8.13c0-1.09,1.06-1.62,2.15-1.62a2.67,2.67,0,0,1,2.59,1.55l1.77-1a4.64,4.64,0,0,0-4.36-2.52c-2.45,0-4.29,1.47-4.29,3.61,0,4.38,6.79,2.9,6.79,5.49,0,1.19-1.12,1.65-2.4,1.65a3,3,0,0,1-3-1.89l-1.81,1a4.9,4.9,0,0,0,4.82,2.84c2.59,0,4.53-1.38,4.53-3.64,0-4.45-6.78-2.93-6.78-5.52"/></g></g></svg>