<?xml version="1.0" encoding="UTF-8"?>
<svg width="212px" height="29px" viewBox="0 0 212 29" version="1.1" xmlns="http://www.w3.org/2000/svg" xmlns:xlink="http://www.w3.org/1999/xlink">
    <!-- Generator: Sketch 59.1 (86144) - https://sketch.com -->
    <title>编组备份</title>
    <desc>Created with Sketch.</desc>
    <defs>
        <polygon id="path-1" points="0 28.3462 212.066 28.3462 212.066 0.0002 0 0.0002"></polygon>
    </defs>
    <g id="组件" stroke="none" stroke-width="1" fill="none" fill-rule="evenodd">
        <g id="编组备份">
            <path d="M74.7651,14.1401 C74.7651,11.2501 77.4361,9.3091 79.9311,9.3091 C82.9631,9.3091 84.8461,11.4491 84.8461,14.8931 L84.8461,27.9701 L88.2801,27.9701 L88.2801,14.4751 C88.2801,11.9771 89.6591,9.3091 93.5301,9.3091 C96.5411,9.3091 98.4861,11.5011 98.4861,14.8931 L98.4861,27.9701 L101.9201,27.9701 L101.9201,14.8931 C101.9201,9.4601 98.8651,6.0841 93.9481,6.0841 C91.0531,6.0841 88.5481,7.3301 86.9841,9.5231 C85.9581,7.8491 84.0491,6.0841 80.5591,6.0841 C78.2011,6.0841 76.1811,6.9241 74.7651,8.4701 L74.7651,6.3771 L71.3311,6.3771 L71.3311,27.9701 L74.7651,27.9701 L74.7651,14.1401 Z" id="Fill-1" fill="#000000"></path>
            <path d="M18.1782,14.8711 C19.0032,11.5251 21.8942,9.2251 25.3502,9.2251 C28.7732,9.2251 31.4022,11.4761 32.0062,14.8711 L18.1782,14.8711 Z M35.4982,16.8581 C35.4782,13.5921 34.4532,10.8281 32.5362,8.8651 C30.7322,7.0181 28.2102,6.0011 25.4342,6.0011 C19.1422,6.0011 14.5752,10.6911 14.5752,17.1531 C14.5752,23.6941 19.0062,28.2631 25.3502,28.2631 C29.5542,28.2631 32.8302,26.4511 34.8222,23.0221 L34.9942,22.7271 L32.0512,20.8351 L31.8632,21.1571 C30.3102,23.8051 28.2412,25.0381 25.3502,25.0381 C21.3252,25.0381 18.2312,22.0251 18.0202,17.9701 L35.4982,17.9701 L35.4982,16.8581 Z" id="Fill-3" fill="#000000"></path>
            <polygon id="Fill-5" fill="#000000" points="3.434 9.6021 13.267 9.6021 13.267 6.3771 0 6.3771 0 28.0121 3.434 28.0121"></polygon>
            <path d="M108.4521,14.8711 C109.2771,11.5251 112.1681,9.2251 115.6241,9.2251 C119.0461,9.2251 121.6751,11.4761 122.2801,14.8711 L108.4521,14.8711 Z M115.6241,28.2631 C119.8281,28.2631 123.1041,26.4511 125.0961,23.0221 L125.2671,22.7271 L122.3241,20.8351 L122.1361,21.1571 C120.5841,23.8051 118.5151,25.0381 115.6241,25.0381 C111.5981,25.0381 108.5051,22.0251 108.2931,17.9701 L125.7721,17.9701 L125.7721,16.8581 C125.7511,13.5921 124.7271,10.8281 122.8091,8.8651 C121.0061,7.0181 118.4831,6.0011 115.7081,6.0011 C109.4151,6.0011 104.8481,10.6911 104.8481,17.1531 C104.8481,23.6941 109.2801,28.2631 115.6241,28.2631 L115.6241,28.2631 Z" id="Fill-7" fill="#000000"></path>
            <mask id="mask-2" fill="white">
                <use xlink:href="#path-1"></use>
            </mask>
            <g id="Clip-10"></g>
            <polygon id="Fill-9" fill="#000000" mask="url(#mask-2)" points="63.443 27.9702 66.877 27.9702 66.877 0.0002 63.443 0.0002"></polygon>
            <path d="M41.4145,17.2363 C41.4145,12.8363 44.5705,9.5183 48.7565,9.5183 C53.0975,9.5183 56.0145,12.6203 56.0145,17.2363 C56.0145,21.8283 53.0975,24.9133 48.7565,24.9133 C44.5705,24.9133 41.4145,21.6123 41.4145,17.2363 M48.9235,28.3463 C51.4315,28.3463 53.8175,27.5123 55.5965,26.0363 L55.5965,28.0123 L58.9885,28.0123 L58.9885,6.4193 L55.5965,6.4193 L55.5965,8.4053 C53.7855,6.9223 51.3985,6.0843 48.9235,6.0843 C45.8535,6.0843 43.0585,7.2263 41.0525,9.3003 C39.0715,11.3463 37.9805,14.1653 37.9805,17.2363 C37.9805,20.3053 39.0715,23.1163 41.0525,25.1533 C43.0565,27.2123 45.8515,28.3463 48.9235,28.3463" id="Fill-11" fill="#000000" mask="url(#mask-2)"></path>
            <path d="M184.3994,14.5488 L181.6594,14.5488 L181.9794,9.5288 L190.9424,9.5288 L190.9424,6.3428 L178.9204,6.3428 L178.1024,17.8248 L184.3384,17.8248 C186.8154,17.8248 188.4154,19.2368 188.4154,21.4238 C188.4154,23.6248 186.8314,24.9908 184.2804,24.9908 C182.0434,24.9908 180.5284,23.9628 180.0134,22.0928 L179.9154,21.7318 L177.0164,23.3838 L177.0934,23.6118 C178.0764,26.5018 180.8294,28.2968 184.2804,28.2968 C187.8784,28.2968 191.7524,26.1458 191.7524,21.4238 C191.7524,16.7008 187.9414,14.5488 184.3994,14.5488" id="Fill-12" fill="#000000" mask="url(#mask-2)"></path>
            <path d="M150.3701,24.958 C145.8181,24.958 142.5131,21.679 142.5131,17.161 C142.5131,12.626 145.8181,9.335 150.3701,9.335 C152.6721,9.335 154.7411,10.326 156.0331,11.969 L159.0151,10.246 C157.0481,7.601 153.8421,5.991 150.3701,5.991 C143.9521,5.991 139.1121,10.793 139.1121,17.161 C139.1121,23.529 143.9521,28.331 150.3701,28.331 C153.9121,28.331 157.1571,26.66 159.1001,23.929 L156.1481,22.2 C154.8621,23.899 152.6961,24.958 150.3701,24.958" id="Fill-13" fill="#000000" mask="url(#mask-2)"></path>
            <path d="M166.4355,24.5996 L171.2825,19.7806 C173.0605,18.0026 175.1015,15.5896 175.1015,12.6746 C175.1015,8.3336 171.5965,5.9916 168.2985,5.9916 C165.2545,5.9916 162.7525,7.5546 161.4375,10.2786 L161.3205,10.5186 L164.1545,12.1906 L164.2905,11.9036 C165.1245,10.1506 166.4845,9.2626 168.3295,9.2626 C170.0275,9.2626 171.7415,10.3266 171.7415,12.7046 C171.7415,14.4666 170.2895,16.1566 168.8675,17.5786 L161.4075,25.1906 L161.4075,27.8706 L175.4905,27.8706 L175.4905,24.5996 L166.4355,24.5996 Z" id="Fill-14" fill="#000000" mask="url(#mask-2)"></path>
            <polygon id="Fill-15" fill="#000000" mask="url(#mask-2)" points="204.5009 19.4058 204.5009 28.0258 200.9359 28.0258 200.9359 19.4058 193.3699 6.3218 197.4319 6.3218 202.7329 15.9328 208.0049 6.3218 212.0659 6.3218"></polygon>
        </g>
    </g>
</svg>