<svg id="图层_1" data-name="图层 1" xmlns="http://www.w3.org/2000/svg" viewBox="0 0 188.19 24.72"><defs><style>.cls-1{fill:#2f2725;}.cls-2{fill:#231815;}</style></defs><path class="cls-1" d="M394.37,349a4.44,4.44,0,0,1,4.5-4.22c2.65,0,4.29,1.87,4.29,4.87v11.41h3V349.29a4.22,4.22,0,0,1,4.57-4.51c2.63,0,4.33,1.92,4.33,4.87v11.41h3V349.65c0-4.73-2.66-7.68-6.95-7.68a7.27,7.27,0,0,0-6.07,3,6.2,6.2,0,0,0-5.61-3,6.64,6.64,0,0,0-5.05,2.08v-1.82h-3v18.83h3Z" transform="translate(-329.17 -336.67)"/><path class="cls-1" d="M360.12,351.37a9.77,9.77,0,0,0-2.58-7,8.54,8.54,0,0,0-6.19-2.5c-5.49,0-9.47,4.09-9.47,9.72s3.86,9.69,9.39,9.69a9,9,0,0,0,8.26-4.57l.15-.25-2.56-1.65-.17.28a6.12,6.12,0,0,1-5.68,3.38,6.33,6.33,0,0,1-6.39-6.16h15.24ZM345,349.63a6.39,6.39,0,0,1,6.25-4.92,5.74,5.74,0,0,1,5.81,4.92Z" transform="translate(-329.17 -336.67)"/><polygon class="cls-1" points="3 8.37 11.57 8.37 11.57 5.56 0 5.56 0 24.43 3 24.43 3 8.37"/><path class="cls-1" d="M430,361.31a9,9,0,0,0,8.26-4.57l.15-.25-2.56-1.65-.17.28A6.12,6.12,0,0,1,430,358.5a6.32,6.32,0,0,1-6.39-6.16h15.24v-1a9.82,9.82,0,0,0-2.58-7,8.55,8.55,0,0,0-6.2-2.5c-5.48,0-9.47,4.09-9.47,9.72S424.47,361.31,430,361.31Zm-6.25-11.68a6.39,6.39,0,0,1,6.25-4.92,5.74,5.74,0,0,1,5.81,4.92Z" transform="translate(-329.17 -336.67)"/><rect class="cls-1" x="55.33" width="2.99" height="24.39"/><path class="cls-1" d="M371.83,361.39a9.12,9.12,0,0,0,5.82-2v1.72h3V342.26h-3V344a9.19,9.19,0,0,0-5.82-2,9.43,9.43,0,0,0-6.86,2.81,10.25,10.25,0,0,0,0,13.82A9.44,9.44,0,0,0,371.83,361.39Zm-6.55-9.69a6.43,6.43,0,0,1,6.41-6.73c3.78,0,6.33,2.7,6.33,6.73s-2.55,6.69-6.33,6.69A6.42,6.42,0,0,1,365.28,351.7Z" transform="translate(-329.17 -336.67)"/><path class="cls-1" d="M460.3,358.43a6.81,6.81,0,1,1,0-13.62,6.22,6.22,0,0,1,4.94,2.29l2.6-1.5a9.36,9.36,0,0,0-7.54-3.71,9.74,9.74,0,1,0,0,19.48,9.31,9.31,0,0,0,7.62-3.84l-2.58-1.5A6.33,6.33,0,0,1,460.3,358.43Z" transform="translate(-329.17 -336.67)"/><path class="cls-1" d="M474.31,358.12l4.23-4.2c1.55-1.55,3.33-3.66,3.33-6.2a5.76,5.76,0,0,0-5.93-5.83,6.4,6.4,0,0,0-6,3.74l-.11.21,2.48,1.46.11-.25a3.7,3.7,0,0,1,3.53-2.31,2.83,2.83,0,0,1,3,3c0,1.54-1.26,3-2.5,4.26l-6.51,6.63V361h12.28v-2.85Z" transform="translate(-329.17 -336.67)"/><polygon class="cls-1" points="154.5 7.38 155.25 10 159.04 8.88 159.04 24.41 162.01 24.41 162.01 5.61 159.64 5.61 154.5 7.38"/><path class="cls-2" d="M510.77,353.69v7.5h-3.1v-7.5l-6.59-11.39h3.54l4.61,8.37,4.59-8.37h3.53Z" transform="translate(-329.17 -336.67)"/><path class="cls-2" d="M495.28,350.14H502v2.8h-6.67Z" transform="translate(-329.17 -336.67)"/></svg>