<svg xmlns="http://www.w3.org/2000/svg" viewBox="0 0 283.8 28.32"><defs><style>.cls-1,.cls-2{fill:#231815;}.cls-1{fill-rule:evenodd;}.cls-3{fill:#040000;}</style></defs><title>资源 2</title><g id="图层_2" data-name="图层 2"><g id="图层_1-2" data-name="图层 1"><path class="cls-1" d="M159.75,27.87h-3.32v-12h0a6.63,6.63,0,1,0-13.25,0h0V27.87h-3.32V6.18h3.32V8.71a8.76,8.76,0,0,1,6.64-2.85,10,10,0,0,1,10,10h0Z"/><path class="cls-1" d="M181.14,27.87V24.93a11.12,11.12,0,1,1,0-15.86V6.17h3.32v21.7Zm-7.8-18.66A7.79,7.79,0,1,0,181.13,17,7.79,7.79,0,0,0,173.34,9.21Z"/><path class="cls-1" d="M229.47,5.68A11.32,11.32,0,1,0,240.79,17,11.32,11.32,0,0,0,229.47,5.68Zm0,19.31a8,8,0,1,1,8-8A8,8,0,0,1,229.47,25Z"/><path class="cls-1" d="M198.66,6.15h0v3.2c-3.18,0-6.61,1.53-6.61,6.53v12h-3.33V6.18h3.33V8.6C193.25,7.08,195.53,6.15,198.66,6.15Z"/><path class="cls-1" d="M217.72,27.87H200.79V25.5l.63-.88h0l10.82-15.2H201.73V6.18h15.59V8.23h0l-.63.88h0l-.85,1.18h0L205.72,24.52h12Z"/><path class="cls-2" d="M264.74,21.19c0,4.49-3.54,6.86-7.47,6.86-3.14,0-6-1.43-7.17-4.42l3-1.74a4,4,0,0,0,4.18,2.75c2.41,0,4-1.31,4-3.45s-1.55-3.42-4-3.42h-.8l-1.4-2.1,4.61-6.07h-8.94V6.31h13.12v3L259.53,15C262.45,15.73,264.74,17.87,264.74,21.19Z"/><path class="cls-2" d="M267,17c0-6.59,3-11.07,8.39-11.07S283.8,10.39,283.8,17s-3,11.07-8.38,11.07S267,23.57,267,17Zm13.26,0c0-4.91-1.7-7.65-4.87-7.65s-4.88,2.74-4.88,7.65,1.73,7.66,4.88,7.66S280.29,21.89,280.29,17Z"/><path class="cls-3" d="M74.26,14a5,5,0,0,1,5.13-4.79c3,0,4.88,2.12,4.88,5.54v13h3.41V14.38a4.8,4.8,0,0,1,5.21-5.13c3,0,4.93,2.17,4.93,5.54v13h3.41v-13c0-5.39-3-8.75-7.92-8.75a8.29,8.29,0,0,0-6.92,3.42A7,7,0,0,0,80,6a7.6,7.6,0,0,0-5.75,2.37V6.33H70.85V27.78h3.41Z"/><path class="cls-3" d="M35.26,16.74A11.16,11.16,0,0,0,32.31,8.8a9.73,9.73,0,0,0-7-2.84C19,6,14.48,10.62,14.48,17s4.4,11,10.7,11a10.3,10.3,0,0,0,9.41-5.2l.17-.3-2.93-1.88-.18.32a7,7,0,0,1-6.47,3.86,7.21,7.21,0,0,1-7.28-7H35.26Zm-17.21-2a7.28,7.28,0,0,1,7.13-5.61,6.54,6.54,0,0,1,6.61,5.61Z"/><polygon class="cls-3" points="3.41 9.54 13.18 9.54 13.18 6.33 0 6.33 0 27.82 3.41 27.82 3.41 9.54"/><path class="cls-3" d="M114.84,28.07a10.3,10.3,0,0,0,9.41-5.2l.17-.3-2.93-1.88-.18.32a7,7,0,0,1-6.47,3.86,7.21,7.21,0,0,1-7.28-7h17.36V16.74a11.16,11.16,0,0,0-3-7.94,9.73,9.73,0,0,0-7-2.84c-6.25,0-10.78,4.66-10.78,11.08S108.54,28.07,114.84,28.07Zm-7.13-13.3a7.28,7.28,0,0,1,7.13-5.61,6.54,6.54,0,0,1,6.61,5.61Z"/><rect class="cls-3" x="63.01" width="3.41" height="27.78"/><path class="cls-3" d="M48.59,28.15a10.4,10.4,0,0,0,6.63-2.29v2h3.37V6.38H55.22v2A10.48,10.48,0,0,0,48.59,6a10.76,10.76,0,0,0-7.82,3.2,11.24,11.24,0,0,0-3.05,7.88A11.18,11.18,0,0,0,40.77,25,10.76,10.76,0,0,0,48.59,28.15Zm-7.46-11a7.33,7.33,0,0,1,7.29-7.67c4.32,0,7.21,3.08,7.21,7.67s-2.89,7.62-7.21,7.62A7.3,7.3,0,0,1,41.13,17.12Z"/></g></g></svg>