<?xml version="1.0" encoding="utf-8"?>
<!-- Generator: Adobe Illustrator 24.0.0, SVG Export Plug-In . SVG Version: 6.00 Build 0)  -->
<svg version="1.1" id="图层_1" xmlns="http://www.w3.org/2000/svg" xmlns:xlink="http://www.w3.org/1999/xlink" x="0px" y="0px"
	 viewBox="0 0 295.1 28.52" style="enable-background:new 0 0 295.1 28.52;" xml:space="preserve">
<style type="text/css">
	.st0{fill-rule:evenodd;clip-rule:evenodd;}
</style>
<g>
	<g>
		<path class="st0" d="M161.07,28.07h-3.35V15.92h-0.01c0,0,0,0,0,0c0-3.7-2.97-6.71-6.68-6.71c-3.7,0-6.68,3-6.68,6.71c0,0,0,0,0,0
			h-0.02v12.15h-3.35V6.19h3.35v2.56c1.62-1.79,3.94-2.88,6.69-2.88c5.55,0,10.04,4.5,10.04,10.04h0V28.07z"/>
		<path class="st0" d="M182.63,28.07V25.1c-2.02,1.99-4.8,3.22-7.86,3.22c-6.19,0-11.21-5.02-11.21-11.21
			c0-6.19,5.02-11.21,11.21-11.21c3.06,0,5.84,1.23,7.86,3.22V6.19h3.35v21.88H182.63z M174.77,9.25c-4.34,0-7.85,3.52-7.85,7.86
			c0,4.34,3.52,7.86,7.85,7.86c4.34,0,7.85-3.52,7.85-7.86C182.63,12.77,179.11,9.25,174.77,9.25z"/>
		<path class="st0" d="M231.36,5.69c-6.3,0-11.41,5.11-11.41,11.42c0,6.31,5.11,11.42,11.41,11.42c6.3,0,11.41-5.11,11.41-11.42
			C242.78,10.8,237.67,5.69,231.36,5.69z M231.36,25.16c-4.45,0-8.06-3.61-8.06-8.06c0-4.45,3.61-8.06,8.06-8.06
			c4.45,0,8.06,3.61,8.06,8.06C239.42,21.56,235.81,25.16,231.36,25.16z"/>
		<path class="st0" d="M200.3,6.17C200.3,6.17,200.3,6.17,200.3,6.17L200.3,6.17l0,3.24c-3.2,0-6.66,1.54-6.66,6.58v12.08v0h-3.36
			V6.19l3.36,0v2.44C194.84,7.11,197.15,6.17,200.3,6.17z"/>
		<path class="st0" d="M219.52,28.06h-17.07l0-2.38l0.64-0.89l0,0l10.91-15.32H203.4V6.19h0v0h15.71v2.06l0,0v0l-0.63,0.89v0l0,0v0
			l-0.85,1.2h0l-10.21,14.34h12.11V28.06z"/>
	</g>
	<g>
		<path d="M267.17,21.33c0,4.52-3.57,6.92-7.53,6.92c-3.26,0-6.18-1.51-7.32-4.61l3.04-1.75c0.55,1.91,2.03,2.92,4.27,2.92
			c2.4,0,4-1.32,4-3.47c0-2.15-1.6-3.44-3.94-3.44h-6.27l0.83-11.56h11.99v3.32h-8.73l-0.37,4.8h2.71
			C263.76,14.45,267.17,16.84,267.17,21.33z"/>
		<path d="M269.14,17.09c0-6.64,3.04-11.16,8.46-11.16c5.41,0,8.46,4.52,8.46,11.16s-3.04,11.16-8.46,11.16
			C272.18,28.25,269.14,23.73,269.14,17.09z M282.51,17.09c0-4.95-1.72-7.72-4.92-7.72c-3.17,0-4.92,2.77-4.92,7.72
			s1.75,7.72,4.92,7.72C280.79,24.81,282.51,22.04,282.51,17.09z"/>
	</g>
	<g>
		<path d="M74.87,14.16c0-2.89,2.67-4.84,5.17-4.84c3.04,0,4.92,2.14,4.92,5.59v13.1h3.44V14.49c0-2.5,1.38-5.17,5.26-5.17
			c3.02,0,4.96,2.2,4.96,5.59v13.1h3.44v-13.1c0-5.44-3.06-8.82-7.98-8.82c-2.9,0-5.41,1.25-6.97,3.44
			c-1.03-1.68-2.94-3.44-6.43-3.44c-2.36,0-4.38,0.84-5.8,2.39V6.39h-3.44v21.62h3.44V14.16z"/>
		<path d="M35.55,16.88c-0.02-3.27-1.05-6.04-2.97-8c-1.81-1.85-4.33-2.87-7.11-2.87c-6.3,0-10.87,4.7-10.87,11.17
			c0,6.55,4.44,11.13,10.79,11.13c4.21,0,7.49-1.81,9.49-5.25l0.17-0.3l-2.95-1.89l-0.19,0.32c-1.55,2.65-3.63,3.89-6.52,3.89
			c-4.03,0-7.13-3.02-7.34-7.08h17.5V16.88z M18.2,14.89c0.83-3.35,3.72-5.65,7.18-5.65c3.43,0,6.06,2.25,6.67,5.65H18.2z"/>
		<polygon points="3.44,9.62 13.28,9.62 13.28,6.39 0,6.39 0,28.05 3.44,28.05 		"/>
		<path d="M115.79,28.3c4.21,0,7.49-1.81,9.49-5.25l0.17-0.3l-2.95-1.89l-0.19,0.32c-1.55,2.65-3.63,3.89-6.52,3.89
			c-4.03,0-7.13-3.02-7.34-7.08h17.5v-1.11c-0.02-3.27-1.05-6.04-2.97-8c-1.81-1.85-4.33-2.87-7.11-2.87
			c-6.3,0-10.87,4.7-10.87,11.17C105,23.73,109.43,28.3,115.79,28.3z M108.6,14.89c0.83-3.35,3.72-5.65,7.18-5.65
			c3.43,0,6.06,2.25,6.66,5.65H108.6z"/>
		<rect x="63.53" width="3.44" height="28.01"/>
		<path d="M48.99,28.39c2.51,0,4.9-0.84,6.68-2.31v1.98h3.4V6.43h-3.4v1.99c-1.81-1.49-4.2-2.32-6.68-2.32
			c-3.07,0-5.87,1.14-7.88,3.22c-1.98,2.05-3.08,4.87-3.08,7.95c0,3.07,1.09,5.89,3.08,7.93C43.12,27.25,45.92,28.39,48.99,28.39z
			 M41.47,17.26c0-4.41,3.16-7.73,7.35-7.73c4.35,0,7.27,3.11,7.27,7.73c0,4.6-2.92,7.69-7.27,7.69
			C44.63,24.95,41.47,21.64,41.47,17.26z"/>
	</g>
	<g>
		<path d="M290.86,8.16c0-1.17,0.95-2.12,2.12-2.12c1.17,0,2.12,0.95,2.12,2.12c0,1.14-0.95,2.12-2.12,2.12
			C291.82,10.27,290.86,9.29,290.86,8.16z M291.32,12.58h3.32v15.35h-3.32V12.58z"/>
	</g>
</g>
</svg>
