<svg xmlns="http://www.w3.org/2000/svg" width="1253.969" height="224" viewBox="0 0 1253.969 224">
  <defs>
    <style>
      .cls-1 {
        fill-rule: evenodd;
      }
    </style>
  </defs>
  <path id="形状_640_拷贝_3" data-name="形状 640 拷贝 3" class="cls-1" d="M1036.52,1202.01H819.009c-31.548.06-57.5,0.9-85.861,9.08-6.744,1.98-13.567,4.4-10.353,3.29-54.073,18.53-100.178,56-116.091,99.2h0c-15.574,42.27,1.806,79.05,40.426,97.98,0.133,0.07.269,0.13,0.4,0.2a118.826,118.826,0,0,0,13.3,5.45c22.954,7.57,48.781,7.93,64.867,7.94H954.346a2.618,2.618,0,0,0,2.233-1.62l49.671-134.87a1.1,1.1,0,0,0-1.02-1.63H799.63a2.5,2.5,0,0,0-1.441.61h-0.008l-0.592.54h0l-55.874,50.6c0,0.01,0,.01,0,0.01a2.422,2.422,0,0,0-.592.89,1.1,1.1,0,0,0,1.048,1.63H915.079l-10.833,24.98H744.472c-22.483,0-36.438-2.02-46.179-7.76a36.589,36.589,0,0,1-7.047-5.5c-0.412-.42-1.209-1.29-1.284-1.36-8.461-9.6-10.015-23.11-2.641-38.09,7.98-16.19,24.731-30.68,44.613-40.35a0.447,0.447,0,1,1,.065-0.03l-0.065.03c0.252-.12,2.193-1.05,3.231-1.52,21.241-9.54,41.055-10.84,58.327-10.84H1014.94a2.621,2.621,0,0,0,2.09-1.47l20.54-55.77A1.1,1.1,0,0,0,1036.52,1202.01Zm395.08,0H1069.23a2.6,2.6,0,0,0-2.26,1.64,0.01,0.01,0,0,1-.01.01l-20.47,55.57h0a1.109,1.109,0,0,0,1.02,1.64h139.61l-60.22,163.49v0.01a1.1,1.1,0,0,0,1.05,1.63,0.035,0.035,0,0,1,.02.01h79.96a2.592,2.592,0,0,0,2.16-1.59l60.25-163.55h139.67a2.652,2.652,0,0,0,2.15-1.59l20.5-55.66A1.107,1.107,0,0,0,1431.6,1202.01Zm415.01,0h-375.4a12.709,12.709,0,0,0-11.97,8.37l-73.57,204.53a8.319,8.319,0,0,0,7.9,11.1h375.4a12.691,12.691,0,0,0,11.96-8.36l73.58-204.53A8.328,8.328,0,0,0,1846.61,1202.01Zm-79.37,207.36H1404.32l68.61-190.72h362.92Zm-218.36-107.7H1535.6l15.44-42.07-30.14,30.12h-1.55l-8.07-30.02-15.4,41.97H1482.5l23.8-64.86h13.76l8.22,30.67,30.64-30.67h13.76Zm75.91-46.33-17,46.33h-12.5l2-5.46a28.2,28.2,0,0,1-18.27,6.76c-12.89,0-19.64-10.66-14.57-24.46s19.63-24.47,32.52-24.47c7.07,0,11.35,2.6,13.31,6.77l2.01-5.47h12.5Zm-21,23.17c2.85-7.79-.93-13.07-8.68-13.07-7.65,0-15.31,5.28-18.16,13.07s0.92,13.06,8.58,13.06A20.03,20.03,0,0,0,1603.79,1278.51Zm54.01,9.63c-3.67,10.01-14.54,14.83-24.91,14.83-9.69,0-15.43-3.89-16.3-11.03l12.99-5.83c-0.03,3.79,2.44,6.02,7.29,6.02,3.97,0,7.16-1.3,8.15-3.99,2.48-6.76-23.88-3.05-17.9-19.36,3.47-9.45,13.84-14.74,23.82-14.74,7.85,0,13.37,3.43,14.8,9.83l-12.69,5.56c-0.37-2.97-2.44-4.73-6.02-4.73-3.1,0-6.1,1.3-7.01,3.8C1637.5,1275.36,1664.06,1271.09,1657.8,1288.14Zm28.75-21.31-7.07,19.28c-1.83,5,1.91,5.09,9.22,4.72l-3.98,10.84c-18.22,1.86-22.33-3.05-17.74-15.56l7.08-19.28h-8.43l4.21-11.49h8.43l3.43-9.36,13.83-3.61-4.76,12.97h10.95l-4.22,11.49h-10.95Zm30.84,25.3a19.737,19.737,0,0,0,12.55-4.63l8.04,5.56a36.38,36.38,0,0,1-24.76,9.91c-16.28,0-22.64-10.66-17.58-24.46s19.35-24.47,34.56-24.47c14.34,0,20.53,10.84,15.54,24.47a35.567,35.567,0,0,1-2.29,4.91h-36.53C1706.42,1289.54,1710.8,1292.13,1717.39,1292.13Zm17.44-17.98c0.9-6.67-3.34-9.36-8.58-9.36a18.637,18.637,0,0,0-16.12,9.36h24.7Zm53.27-19.73-4.9,13.34a18,18,0,0,0-19.04,11.77l-8.13,22.14h-12.49l16.99-46.33h12.5l-2.92,7.97A22.7,22.7,0,0,1,1788.1,1254.42Zm-288.66,115.47-4.49,12.22h-41.96l23.8-64.86h41.47l-4.49,12.23h-28.1l-5.06,13.81h25.68l-4.42,12.05h-25.68l-5.34,14.55h28.59Zm73.86-52.64-23.8,64.86H1537l2.01-5.46a27.574,27.574,0,0,1-18.18,6.76c-12.99,0-19.73-10.65-14.67-24.46s19.64-24.46,32.62-24.46c7.07,0,11.29,2.5,13.21,6.76l8.81-24h12.5Zm-27.8,41.7c2.86-7.78-.92-13.07-8.58-13.07a20.039,20.039,0,0,0-18.26,13.07c-2.86,7.78.92,13.07,8.68,13.07C1534.99,1372.02,1542.64,1366.73,1545.5,1358.95Zm30.01-23.17h12.5l-17,46.33h-12.5Zm3.27-12.88c1.46-3.98,6.21-7.41,10.38-7.41,4.26,0,6.49,3.43,5.03,7.41a12.032,12.032,0,0,1-10.44,7.32C1579.58,1330.22,1577.32,1326.89,1578.78,1322.9Zm30.79,24.38-7.07,19.27c-1.84,5,1.9,5.09,9.21,4.72l-3.98,10.84c-18.21,1.86-22.32-3.05-17.73-15.56l7.06-19.27h-8.42l4.21-11.5h8.43l3.43-9.36,13.83-3.61-4.76,12.97h10.95l-4.22,11.5h-10.94Zm21.55-11.5h12.5l-16.99,46.33h-12.5Zm3.28-12.88c1.46-3.98,6.21-7.41,10.37-7.41,4.27,0,6.5,3.43,5.03,7.41a12.017,12.017,0,0,1-10.43,7.32C1635.2,1330.22,1632.94,1326.89,1634.4,1322.9Zm7.22,36.05c5.06-13.81,20.31-24.46,34.55-24.46s21.77,10.65,16.7,24.46-20.4,24.46-34.65,24.46S1636.55,1372.76,1641.62,1358.95Zm38.76,0c2.75-7.5-1.03-12.79-8.49-12.79-7.37,0-15.02,5.29-17.77,12.79s1.02,12.79,8.39,12.79C1669.96,1371.74,1677.62,1366.46,1680.38,1358.95Zm66.08-5.28-10.44,28.44h-12.5l9.89-26.96c2.31-6.3-.47-9.54-6.09-9.54-6.1,0-11.91,3.43-14.87,11.48l-9.18,25.02h-12.5l17-46.33h12.5l-1.91,5.19a24.262,24.262,0,0,1,16.82-6.48C1745.45,1334.49,1750.97,1341.34,1746.46,1353.67Z" transform="translate(-601.031 -1202)"/>
</svg>
