<?xml version="1.0" encoding="utf-8"?>
<!-- Generator: Adobe Illustrator 23.0.0, SVG Export Plug-In . SVG Version: 6.00 Build 0)  -->
<svg version="1.1" id="图层_1" xmlns="http://www.w3.org/2000/svg" xmlns:xlink="http://www.w3.org/1999/xlink" x="0px" y="0px"
	 viewBox="0 0 265.6 46.2" style="enable-background:new 0 0 265.6 46.2;" xml:space="preserve">
<style type="text/css">
	.st0{fill:#040000;}
</style>
<title>资源 1</title>
<g>
	<path class="st0" d="M258.8,12.9c0-2,1.6-3.4,3.4-3.4c2,0,3.4,1.6,3.4,3.4s-1.6,3.4-3.4,3.4C260.4,16.3,258.8,14.7,258.8,12.9
		 M259.6,20.1h5.4v25.1h-5.4V20.1z"/>
	<path class="st0" d="M121.8,23c0-4.7,4.4-7.8,8.5-7.8c4.9,0,8,3.4,8,9.1v21.3h5.5v-22c0-4.1,2.3-8.5,8.6-8.5c4.9,0,8.1,3.6,8.1,9.1
		v21.3h5.5V24.3c0-8.8-5-14.3-13-14.3c-4.7,0-8.8,2-11.4,5.5c-1.6-2.8-4.7-5.5-10.4-5.5c-3.9,0-7.2,1.3-9.4,3.9v-3.4h-5.5v35.2h5.5
		V23z"/>
	<path class="st0" d="M57.8,27.4c0-5.4-1.6-9.8-4.9-13c-2.9-2.9-7-4.7-11.6-4.7c-10.3,0-17.8,7.7-17.8,18.2S30.8,46,41.2,46
		c6.8,0,12.2-2.9,15.5-8.5L57,37l-4.7-3.1l-0.3,0.5c-2.6,4.2-5.9,6.4-10.6,6.4c-6.5,0-11.6-4.9-11.9-11.6H58v-1.8H57.8z M29.6,24.2
		c1.3-5.4,6-9.1,11.7-9.1c5.5,0,9.9,3.7,10.9,9.1H29.6z"/>
	<polygon class="st0" points="5.7,15.7 21.7,15.7 21.7,10.5 0,10.5 0,45.6 5.7,45.6 	"/>
	<path class="st0" d="M188.4,46c6.8,0,12.2-2.9,15.5-8.5l0.3-0.5l-4.7-3.1l-0.3,0.5c-2.6,4.2-5.9,6.4-10.6,6.4
		c-6.5,0-11.6-4.9-11.9-11.6h28.5v-1.8c0-5.4-1.6-9.8-4.9-13c-2.9-2.9-7-4.7-11.6-4.7c-10.3,0-17.8,7.7-17.8,18.2
		C170.8,38.6,178,46,188.4,46 M176.7,24.2c1.3-5.4,6-9.1,11.7-9.1c5.5,0,9.9,3.7,10.9,9.1H176.7z"/>
	<rect x="103.4" y="0.1" class="st0" width="5.5" height="45.6"/>
	<path class="st0" d="M79.8,46.1c4.1,0,8-1.3,10.9-3.7v3.3h5.5V10.5h-5.5v3.3c-2.9-2.4-6.8-3.7-10.9-3.7c-5,0-9.6,1.8-12.9,5.2
		c-3.3,3.3-5,8-5,12.9c0,5,1.8,9.6,5,12.9C70.2,44.3,74.7,46.1,79.8,46.1 M67.6,28.1c0-7.2,5.2-12.5,11.9-12.5c7,0,11.9,5,11.9,12.5
		s-4.7,12.5-11.9,12.5C72.6,40.6,67.6,35.2,67.6,28.1"/>
	<path class="st0" d="M251,21.5c0-7-5-11.7-12.2-11.7s-12.2,4.9-12.2,11.7c0,7,5,11.7,12.2,11.7h1.1l0,0l-8.1,12.1h6L249,28.4
		C250.1,26.6,251,24.2,251,21.5 M238.7,28.4c-4.1,0-7-2.8-7-6.8s2.9-6.8,7-6.8s6.8,2.8,6.8,6.8S242.8,28.4,238.7,28.4"/>
</g>
</svg>
