<?xml version="1.0" encoding="utf-8"?>
<!-- Generator: Adobe Illustrator 26.0.2, SVG Export Plug-In . SVG Version: 6.00 Build 0)  -->
<svg version="1.1" id="图层_1" xmlns="http://www.w3.org/2000/svg" xmlns:xlink="http://www.w3.org/1999/xlink" x="0px" y="0px"
	 viewBox="0 0 240.7 28.3" style="enable-background:new 0 0 240.7 28.3;" xml:space="preserve">
<g>
	<g>
		<g>
			<path d="M74.8,14.1c0-2.9,2.7-4.8,5.2-4.8c3,0,4.9,2.1,4.9,5.6V28h3.4V14.5c0-2.5,1.4-5.2,5.2-5.2c3,0,5,2.2,5,5.6V28h3.4V14.9
				c0-5.4-3.1-8.8-8-8.8c-2.9,0-5.4,1.2-7,3.4c-1-1.7-2.9-3.4-6.4-3.4c-2.4,0-4.4,0.8-5.8,2.4V6.4h-3.4V28h3.4V14.1z"/>
			<path d="M35.5,16.9c0-3.3-1-6-3-8C30.7,7,28.2,6,25.4,6c-6.3,0-10.9,4.7-10.9,11.2c0,6.5,4.4,11.1,10.8,11.1
				c4.2,0,7.5-1.8,9.5-5.2l0.2-0.3l-2.9-1.9l-0.2,0.3c-1.6,2.6-3.6,3.9-6.5,3.9c-4,0-7.1-3-7.3-7.1h17.5V16.9z M18.2,14.9
				c0.8-3.3,3.7-5.6,7.2-5.6c3.4,0,6.1,2.3,6.7,5.6H18.2z"/>
			<polygon points="3.4,9.6 13.3,9.6 13.3,6.4 0,6.4 0,28 3.4,28 			"/>
			<path d="M115.6,28.3c4.2,0,7.5-1.8,9.5-5.2l0.2-0.3l-2.9-1.9l-0.2,0.3c-1.6,2.6-3.6,3.9-6.5,3.9c-4,0-7.1-3-7.3-7.1h17.5v-1.1
				c0-3.3-1-6-3-8C121,7,118.5,6,115.7,6c-6.3,0-10.9,4.7-10.9,11.2C104.8,23.7,109.3,28.3,115.6,28.3z M108.5,14.9
				c0.8-3.3,3.7-5.6,7.2-5.6c3.4,0,6.1,2.3,6.7,5.6H108.5z"/>
			<rect x="63.4" width="3.4" height="28"/>
			<path d="M48.9,28.3c2.5,0,4.9-0.8,6.7-2.3v2H59V6.4h-3.4v2c-1.8-1.5-4.2-2.3-6.7-2.3c-3.1,0-5.9,1.1-7.9,3.2
				c-2,2-3.1,4.9-3.1,7.9c0,3.1,1.1,5.9,3.1,7.9C43.1,27.2,45.9,28.3,48.9,28.3z M41.4,17.2c0-4.4,3.2-7.7,7.3-7.7
				c4.3,0,7.3,3.1,7.3,7.7c0,4.6-2.9,7.7-7.3,7.7C44.6,24.9,41.4,21.6,41.4,17.2z"/>
		</g>
		<path d="M154,13.3C154,9,151,6,146.6,6c-4.4,0-7.5,3-7.5,7.2c0,4.3,3.1,7.2,7.5,7.2h0.7l0,0l-5,7.4h3.7l6.9-10.4
			C153.6,16.3,154,14.9,154,13.3z M146.6,17.4c-2.5,0-4.3-1.7-4.3-4.2c0-2.5,1.8-4.2,4.3-4.2c2.5,0,4.2,1.7,4.2,4.2
			C150.8,15.8,149.1,17.4,146.6,17.4z"/>
	</g>
	<g>
		<path d="M172.9,6.4H165v21.4h3.4v-7.4h4.4c1.9,0,3.7-0.7,5-2c1.3-1.3,2-3.1,2-5C180,9.4,176.9,6.4,172.9,6.4z M172.9,17.2h-4.4
			V9.6h4.4c2.1,0,3.6,1.6,3.6,3.8C176.5,15.6,175,17.2,172.9,17.2z"/>
		<path d="M190.9,20l4.5,7.8h3.8l-4.9-8.3l0.1,0c2.5-1,4.2-3.5,4.2-6.2c0-1.8-0.7-3.6-2-4.9c-1.3-1.3-3-2-4.9-2h-8.6v21.4h3.4V20
			L190.9,20L190.9,20z M186.6,9.6h5.1c1.9,0,3.4,1.6,3.4,3.6c0,2-1.5,3.6-3.4,3.6h-5.1V9.6z"/>
		<path d="M210.9,6c-5.7,0-10.1,4.3-10.1,11.1c0,7,4.4,11.1,10.1,11.1c5.7,0,10.1-4.1,10.1-11.1C221,10.3,216.5,6,210.9,6z
			 M210.9,24.9c-4,0-6.8-3.1-6.8-7.8c0-4.3,2.9-7.9,6.8-7.9c4,0,6.8,3.6,6.8,7.9C217.7,21.8,214.8,24.9,210.9,24.9z"/>
	</g>
	<g>
		<path d="M240.7,19h-5.9v5.9h-3.6V19h-5.9v-3.6h5.9V9.5h3.6v5.9h5.9V19z"/>
	</g>
</g>
</svg>
