<?xml version="1.0" encoding="UTF-8"?>
<svg width="192px" height="29px" viewBox="0 0 192 29" version="1.1" xmlns="http://www.w3.org/2000/svg" xmlns:xlink="http://www.w3.org/1999/xlink">
    <title>编组</title>
    <defs>
        <polygon id="path-1" points="0 28.3769 191.084 28.3769 191.084 -0.0001 0 -0.0001"></polygon>
    </defs>
    <g id="页面-1" stroke="none" stroke-width="1" fill="none" fill-rule="evenodd">
        <g id="画板" transform="translate(-659.000000, -520.000000)">
            <g id="编组" transform="translate(659.000000, 520.000000)">
                <path d="M74.7651,14.1395 C74.7651,11.2495 77.4361,9.3085 79.9311,9.3085 C82.9631,9.3085 84.8461,11.4485 84.8461,14.8925 L84.8461,27.9695 L88.2801,27.9695 L88.2801,14.4745 C88.2801,11.9765 89.6591,9.3085 93.5301,9.3085 C96.5411,9.3085 98.4871,11.5005 98.4871,14.8925 L98.4871,27.9695 L101.9201,27.9695 L101.9201,14.8925 C101.9201,9.4595 98.8661,6.0835 93.9481,6.0835 C91.0531,6.0835 88.5481,7.3295 86.9841,9.5225 C85.9581,7.8485 84.0491,6.0835 80.5591,6.0835 C78.2011,6.0835 76.1811,6.9235 74.7651,8.4695 L74.7651,6.3765 L71.3311,6.3765 L71.3311,27.9695 L74.7651,27.9695 L74.7651,14.1395 Z" id="Fill-1" fill="#050101"></path>
                <path d="M18.1782,14.87 C19.0032,11.524 21.8942,9.224 25.3502,9.224 C28.7732,9.224 31.4022,11.475 32.0062,14.87 L18.1782,14.87 Z M35.4982,16.857 C35.4782,13.592 34.4532,10.828 32.5362,8.865 C30.7322,7.017 28.2102,6 25.4342,6 C19.1422,6 14.5752,10.69 14.5752,17.152 C14.5752,23.694 19.0062,28.263 25.3502,28.263 C29.5542,28.263 32.8302,26.45 34.8222,23.022 L34.9942,22.726 L32.0512,20.835 L31.8632,21.156 C30.3102,23.805 28.2412,25.038 25.3502,25.038 C21.3252,25.038 18.2312,22.024 18.0202,17.97 L35.4982,17.97 L35.4982,16.857 Z" id="Fill-3" fill="#050101"></path>
                <polygon id="Fill-5" fill="#050101" points="3.434 9.6014 13.267 9.6014 13.267 6.3764 0 6.3764 0 28.0114 3.434 28.0114"></polygon>
                <path d="M108.4526,14.87 C109.2766,11.524 112.1686,9.224 115.6246,9.224 C119.0466,9.224 121.6756,11.475 122.2796,14.87 L108.4526,14.87 Z M115.6246,28.263 C119.8286,28.263 123.1036,26.45 125.0966,23.022 L125.2676,22.726 L122.3246,20.835 L122.1366,21.156 C120.5836,23.805 118.5156,25.038 115.6246,25.038 C111.5986,25.038 108.5056,22.024 108.2936,17.97 L125.7716,17.97 L125.7716,16.857 C125.7516,13.592 124.7266,10.828 122.8096,8.865 C121.0056,7.017 118.4836,6 115.7076,6 C109.4156,6 104.8486,10.69 104.8486,17.152 C104.8486,23.694 109.2796,28.263 115.6246,28.263 L115.6246,28.263 Z" id="Fill-7" fill="#050101"></path>
                <mask id="mask-2" fill="white">
                    <use xlink:href="#path-1"></use>
                </mask>
                <g id="Clip-10"></g>
                <polygon id="Fill-9" fill="#050101" mask="url(#mask-2)" points="63.443 27.9699 66.877 27.9699 66.877 -0.0001 63.443 -0.0001"></polygon>
                <path d="M41.4145,17.2362 C41.4145,12.8362 44.5705,9.5172 48.7565,9.5172 C53.0975,9.5172 56.0145,12.6192 56.0145,17.2362 C56.0145,21.8272 53.0975,24.9122 48.7565,24.9122 C44.5705,24.9122 41.4145,21.6122 41.4145,17.2362 M48.9235,28.3462 C51.4315,28.3462 53.8175,27.5112 55.5965,26.0352 L55.5965,28.0112 L58.9885,28.0112 L58.9885,6.4182 L55.5965,6.4182 L55.5965,8.4042 C53.7855,6.9222 51.3985,6.0842 48.9235,6.0842 C45.8535,6.0842 43.0585,7.2262 41.0525,9.2992 C39.0715,11.3462 37.9805,14.1642 37.9805,17.2362 C37.9805,20.3042 39.0715,23.1162 41.0525,25.1522 C43.0565,27.2122 45.8515,28.3462 48.9235,28.3462" id="Fill-11" fill="#050101" mask="url(#mask-2)"></path>
                <path d="M150.3705,24.9579 C145.8175,24.9579 142.5135,21.6799 142.5135,17.1609 C142.5135,12.6259 145.8175,9.3339 150.3705,9.3339 C152.6725,9.3339 154.7415,10.3259 156.0325,11.9689 L159.0145,10.2459 C157.0475,7.6009 153.8415,5.9909 150.3705,5.9909 C143.9515,5.9909 139.1115,10.7929 139.1115,17.1609 C139.1115,23.5289 143.9515,28.3309 150.3705,28.3309 C153.9115,28.3309 157.1575,26.6599 159.1005,23.9289 L156.1475,22.1999 C154.8625,23.8989 152.6965,24.9579 150.3705,24.9579" id="Fill-12" fill="#050101" mask="url(#mask-2)"></path>
                <path d="M170.3178,15.1298 L174.8318,9.0428 L174.8318,6.3308 L161.7138,6.3308 L161.7138,9.3018 L171.0308,9.3018 L166.2848,15.7208 L166.2188,15.8098 L167.4548,17.7128 L168.2728,17.7128 C170.8958,17.7128 172.5918,19.2038 172.5918,21.5138 C172.5918,23.8048 170.8958,25.2838 168.2728,25.2838 C165.9448,25.2838 164.3958,24.3008 163.7938,22.4408 L163.7318,22.2488 L161.0648,23.8198 L161.1148,23.9458 C162.1758,26.7208 164.8528,28.3768 168.2728,28.3768 C173.4068,28.3768 175.7458,24.8188 175.7458,21.5138 C175.7458,18.2818 173.6728,15.8568 170.3178,15.1298" id="Fill-13" fill="#050101" mask="url(#mask-2)"></path>
                <path d="M188.9955,16.2489 C187.6215,14.9649 185.6795,14.2579 183.5275,14.2579 L180.4635,14.2119 L180.8375,9.4449 L189.5425,9.4449 L190.2765,6.3429 L177.9865,6.3429 L177.0665,17.5579 L183.4605,17.5579 C185.2405,17.5579 186.6905,18.2959 187.3395,19.5339 C188.1835,21.1449 187.6185,23.1139 186.0225,24.1089 C184.2955,25.1839 182.0635,25.1299 180.3125,24.9619 C179.6885,24.9029 178.1305,24.6749 177.9015,24.5199 L177.5895,24.3099 L176.8405,27.4829 L177.0635,27.5579 C179.3855,28.3379 181.9635,28.3769 182.4555,28.3769 C182.5055,28.3769 182.5325,28.3759 182.5315,28.3759 C185.8425,28.3119 188.6825,26.8789 190.1295,24.5429 C191.7505,21.9299 191.2635,18.3639 188.9955,16.2489" id="Fill-14" fill="#050101" mask="url(#mask-2)"></path>
            </g>
        </g>
    </g>
</svg>